<?xml version="1.0" encoding="utf-8"?>
<!-- Generator: Adobe Illustrator 28.2.0, SVG Export Plug-In . SVG Version: 6.00 Build 0)  -->
<svg version="1.2" baseProfile="tiny" id="Layer_1" xmlns="http://www.w3.org/2000/svg" xmlns:xlink="http://www.w3.org/1999/xlink"
	 x="0px" y="0px" viewBox="0 0 44 50" overflow="visible" xml:space="preserve">
<g>
	<path fill="#7BBA3C" d="M22,4.4c5.27,3.74,11.68,4.6,16.45,4.6c0.69,0,1.34-0.02,1.94-0.05v14.45v0.03c0,0.04-0.07,4.28-2.4,9.18
		C34.94,39.01,29.56,43.5,22,45.97C3.98,40.07,3.61,24.1,3.61,23.43v-0.03V8.95c0.6,0.03,1.25,0.05,1.94,0.05
		C10.32,8.99,16.73,8.14,22,4.4 M22-0.28C17.23,4.46,10.34,5.41,5.55,5.41C2.29,5.41,0,4.97,0,4.97v18.42v0.03c0,0,0,19.8,22,26.29
		c22-6.49,22-26.29,22-26.29v-0.03V4.97c0,0-2.29,0.44-5.55,0.44C33.66,5.41,26.77,4.46,22-0.28L22-0.28z"/>
	<path fill="#7BBA3C" d="M36.81,16.5l-2.09-2.07c-0.35-0.35-0.92-0.35-1.27,0L18.13,29.63c-0.35,0.35-0.92,0.35-1.27,0l-3.98-3.95
		c-0.35-0.35-0.92-0.35-1.27,0l-2.09,2.07c-0.35,0.35-0.35,0.92,0,1.27l7.34,7.29c0.35,0.35,0.92,0.35,1.27,0l18.68-18.55
		C37.16,17.41,37.16,16.85,36.81,16.5z"/>
</g>
</svg>
