<?xml version="1.0" encoding="UTF-8"?>
<svg id="Layer_1" xmlns="http://www.w3.org/2000/svg" baseProfile="tiny" version="1.2" viewBox="0 0 44 50">
  <!-- Generator: Adobe Illustrator 30.2.1, SVG Export Plug-In . SVG Version: 2.1.1 Build 1)  -->
  <path d="M22,4.4c5.27,3.74,11.68,4.6,16.45,4.6.69,0,1.34-.02,1.94-.05v14.48s-.07,4.28-2.4,9.18c-3.05,6.4-8.43,10.89-15.99,13.36C3.98,40.07,3.61,24.1,3.61,23.43v-14.48c.6.03,1.25.05,1.94.05,4.77-.01,11.18-.86,16.45-4.6M22-.28c-4.77,4.74-11.66,5.69-16.45,5.69-3.26,0-5.55-.44-5.55-.44v18.45s0,19.8,22,26.29c22-6.49,22-26.29,22-26.29V4.97s-2.29.44-5.55.44c-4.79,0-11.68-.95-16.45-5.69h0Z" fill="#1099a8"/>
  <path d="M36.81,16.5l-2.09-2.07c-.35-.35-.92-.35-1.27,0l-15.32,15.2c-.35.35-.92.35-1.27,0l-3.98-3.95c-.35-.35-.92-.35-1.27,0l-2.09,2.07c-.35.35-.35.92,0,1.27l7.34,7.29c.35.35.92.35,1.27,0l18.68-18.55c.35-.35.35-.91,0-1.26Z" fill="#1099a8"/>
</svg>